<?xml version="1.0" standalone="no"?>
<!DOCTYPE svg PUBLIC "-//W3C//DTD SVG 20010904//EN"
 "http://www.w3.org/TR/2001/REC-SVG-20010904/DTD/svg10.dtd">
<svg version="1.0" xmlns="http://www.w3.org/2000/svg"
 width="500.000000pt" height="500.000000pt" viewBox="0 0 500.000000 500.000000"
 preserveAspectRatio="xMidYMid meet">
<metadata>
Created by potrace 1.11, written by Peter Selinger 2001-2013
</metadata>
<g transform="translate(0.000000,500.000000) scale(0.100000,-0.100000)"
fill="#000000" stroke="none">
<path d="M890 3150 l0 -300 200 0 200 0 0 300 0 300 -200 0 -200 0 0 -300z"/>
<path d="M1625 3189 c-126 -142 -245 -277 -264 -299 l-34 -40 241 0 240 0 261
295 c144 161 261 296 261 300 0 3 -107 5 -237 4 l-238 0 -230 -260z"/>
<path d="M2680 3150 l0 -300 200 0 200 0 0 300 0 300 -200 0 -200 0 0 -300z"/>
<path d="M3700 3150 l0 -300 205 0 205 0 0 300 0 300 -205 0 -205 0 0 -300z"/>
<path d="M530 2600 l0 -250 75 0 75 0 0 250 0 250 -75 0 -75 0 0 -250z"/>
<path d="M2293 2745 c-78 -33 -111 -161 -60 -235 39 -58 71 -75 140 -75 48 0
69 5 93 22 35 25 64 78 64 117 0 26 -1 26 -80 26 l-80 0 0 -30 c0 -29 1 -30
47 -30 l47 0 -22 -22 c-17 -17 -34 -23 -68 -23 -39 0 -50 5 -75 33 -63 70 -20
172 71 172 26 0 53 -8 70 -20 l27 -19 22 23 c20 21 20 23 4 38 -10 8 -28 21
-40 27 -30 15 -121 13 -160 -4z"/>
<path d="M2588 2754 c-5 -4 -8 -76 -8 -161 l0 -153 75 0 c67 0 79 3 100 25 32
31 35 103 5 130 -15 13 -17 22 -10 36 18 32 11 74 -14 98 -17 16 -41 24 -83
28 -32 3 -61 2 -65 -3z m106 -81 c5 -11 1 -22 -10 -30 -27 -20 -34 -16 -34 17
0 23 5 30 19 30 10 0 22 -8 25 -17z m16 -119 c20 -19 2 -48 -34 -52 -24 -3
-26 -1 -26 38 0 38 2 41 23 35 12 -4 29 -13 37 -21z"/>
<path d="M2810 2725 c0 -31 3 -35 25 -35 l25 0 0 -125 0 -125 35 0 35 0 0 125
0 125 25 0 c22 0 25 4 25 35 l0 35 -85 0 -85 0 0 -35z"/>
<path d="M2030 2595 l0 -155 70 0 70 0 0 30 c0 28 -2 30 -40 30 l-40 0 0 125
0 125 -30 0 -30 0 0 -155z"/>
<path d="M3090 2671 l0 -41 -40 0 c-38 0 -40 -2 -40 -30 0 -28 2 -30 40 -30
l40 0 0 -40 c0 -38 2 -40 30 -40 28 0 30 2 30 40 l0 40 40 0 c38 0 40 2 40 30
0 28 -2 30 -39 30 -39 0 -40 1 -43 38 -3 32 -7 37 -30 40 -27 3 -28 1 -28 -37z"/>
<path d="M3705 2342 c-3 -3 -5 -49 -5 -103 0 -150 -13 -193 -74 -254 -67 -67
-129 -90 -246 -89 -129 1 -214 46 -262 139 -16 30 -24 73 -31 173 l-10 132
-199 0 c-160 0 -198 -3 -198 -14 0 -72 24 -280 40 -341 27 -105 62 -165 140
-238 79 -75 193 -137 310 -169 111 -29 336 -32 445 -4 217 55 399 212 455 394
19 62 45 355 33 375 -5 9 -389 8 -398 -1z"/>
<path d="M890 1970 l0 -370 200 0 200 0 0 370 0 370 -200 0 -200 0 0 -370z"/>
<path d="M1377 2315 c10 -13 140 -180 288 -369 l270 -345 238 -1 238 0 -58 75
c-32 41 -161 207 -288 369 l-230 295 -238 1 -239 0 19 -25z"/>
</g>
</svg>
